<?xml version="1.0" encoding="UTF-8"?>
<!-- Generated by Pixelmator Pro 3.4.3 -->
<svg width="1024" height="1024" viewBox="0 0 1024 1024" xmlns="http://www.w3.org/2000/svg">
    <path id="Path" fill="#3a4243" fill-rule="evenodd" stroke="none" d="M 247.5 109.692993 C 174.479004 116.211975 119.18 171.541016 111.056 246.210999 C 109.205002 263.226013 109.622002 763.017029 111.5 777.338013 C 121.516998 853.757996 175.824997 907.778015 248.919006 914.031982 C 257.623993 914.776978 341.906006 915.005981 522.5 914.775024 L 783.5 914.440979 L 793 912.219971 C 861.208008 896.268982 906.474976 844.090027 913.98999 772.755005 C 915.703003 756.495972 915.27301 255.846008 913.534973 242.787964 C 903.784973 169.541016 849.575989 117.544006 775.143982 110.044006 C 765.572998 109.078979 258.152008 108.742004 247.5 109.692993 M 172.130005 583.840027"/>
    <path id="path1" fill="#63d077" fill-rule="evenodd" stroke="none" d="M 718 372.028992 C 590.593994 387.05603 546.216003 553.354004 648.5 632.46698 C 732.552979 697.478027 852.737976 647.343018 871.166016 539.583008 C 886.945984 447.303955 808.390015 361.369019 718 372.028992 M 725.267029 400.75 C 714.862 410.905029 701.645996 435.497986 697.651978 452.135986 C 696.309998 457.72699 743.419006 459.874023 764.612 455.187988 L 767.723999 454.5 L 764.926025 446.101013 C 753.142029 410.730957 735.596985 390.667969 725.267029 400.75 M 681.057007 410.015015 C 666.718994 418.299011 643.135986 437.468994 645 439.325989 C 645.275024 439.599976 651.672974 442.271973 659.21698 445.265015 L 672.934021 450.707031 L 675.088013 444.103027 C 677.711975 436.05603 681.734009 426.660034 688.078003 413.75 C 690.713013 408.386963 692.554016 404 692.16803 404 C 691.78302 404 686.78302 406.707031 681.057007 410.015015 M 774.158997 409.25 C 778.200012 416.078979 787.429016 437.22699 789.546021 444.511963 C 791.146973 450.019043 791.299988 450.190002 794.125 449.625 C 798.552979 448.739014 817.879028 441.005005 818.606995 439.827026 C 820.994995 435.963013 779.012024 404 771.547974 404 C 771.275024 404 772.450012 406.363037 774.158997 409.25 M 626.14502 470.25 C 622.366028 479.916992 618 497.69104 618 503.406982 L 618 506 L 642 506 L 666 506 L 666.065979 499.25 C 666.103027 495.537964 666.677002 488.365967 667.34198 483.313965 L 668.552002 474.127991 L 657.583008 470.448975 C 651.551025 468.426025 643.002991 465.247009 638.588013 463.38501 C 634.172974 461.52301 630.468994 460 630.356018 460 C 630.244019 460 628.348999 464.613037 626.14502 470.25 M 830 461.920044 C 825.620972 464.212036 805.978027 471.507996 800.120972 473.018005 L 795.742004 474.146973 L 796.380981 479.587036 C 796.732971 482.579956 797.309021 489.747009 797.661987 495.514038 L 798.304016 506 L 822.713013 506 L 847.122986 506 L 846.495972 501.25 C 844.546021 486.462036 836.218018 459.572998 833.732971 460.044006 C 833.60498 460.06897 831.924988 460.912964 830 461.920044 M 690.60199 486.200012 C 690.236023 490.214966 689.666992 496.087036 689.338989 499.25 L 688.742004 505 L 731.870972 505 C 771.710022 505 775 504.870972 775 503.30896 C 775 497.754028 772.564026 479 771.843018 479 C 771.367004 479 766.596008 479.739014 761.239014 480.641968 C 745.044983 483.370972 710.599976 482.747009 693.883972 479.421021 C 691.299011 478.906006 691.260986 478.984985 690.60199 486.200012 M 689.364014 532.75 C 689.661011 534.812988 690.450989 540.45697 691.119995 545.29303 C 692.137024 552.653992 692.59198 553.97998 693.916992 553.437012 C 702.929993 549.742004 750.317017 548.995972 765 552.317993 C 768.575012 553.125977 771.651978 553.645996 771.838013 553.473022 C 772.281982 553.057983 774.955017 534.153015 774.981018 531.25 L 775 529 L 731.911987 529 L 688.823975 529 L 689.364014 532.75 M 797.999023 530.030029 C 798.000977 531.577026 794.836975 555.799988 794.411011 557.5 C 793.992981 559.166992 794.789978 559.804993 799.205017 561.333984 C 802.117004 562.343018 810.69397 565.898987 818.265015 569.236023 C 825.835022 572.572998 832.280029 575.052979 832.586975 574.745972 C 835.559021 571.775024 844.189026 546.205017 846.413025 533.783997 L 847.078003 530.067993 L 822.538025 529.783997 C 809.041016 529.627991 797.999023 529.737976 797.999023 530.030029 M 618 530.390015 C 618 536.629028 624.650024 559.111023 629.502014 569.276001 C 632.679993 575.934998 632.140015 575.90802 644 570.002014 C 648.125 567.948975 655.549988 564.768005 660.5 562.934021 C 665.450012 561.099976 669.616028 559.536011 669.757996 559.458008 C 669.900024 559.380005 669.330994 554.857971 668.492981 549.40802 C 667.655029 543.958984 666.723999 537.362 666.424011 534.75 L 665.877014 530 L 641.939026 530 C 628.771973 530 618 530.174988 618 530.390015 M 712 574.692017 C 705.469971 575.387024 698 577.138 698 577.973999 C 698 590.586975 724.752014 637 732.020996 637 C 735.848022 637 749.268005 619.35498 755.979004 605.5 C 760.215027 596.755981 766.609009 578.276001 765.710022 577.377014 C 763.317993 574.984985 726.531982 573.145996 712 574.692017 M 664.843018 586.400024 C 644.994995 595.14502 645.088989 595.013977 653.25 602.577026 C 664.247986 612.768982 693 631.588013 693 628.593994 C 693 628.408997 690.784973 623.586975 688.078003 617.879028 C 685.370972 612.169983 681.330994 602.099976 679.098999 595.5 C 674.426025 581.677002 674.890015 581.973022 664.843018 586.400024 M 786.958008 589.75 C 783.890991 599.138977 778.538025 612.075989 773.924011 621.25 C 771.780029 625.513 770.255005 629 770.534973 629 C 775.257019 629 799.369019 613.351013 809.598022 603.648987 C 818.96698 594.760986 819.43103 595.744995 802.245972 588.04303 C 788.374023 581.827026 789.591003 581.690979 786.958008 589.75"/>
    <path id="path2" fill="#ffff00" fill-rule="evenodd" stroke="none" d="M 416.186005 210.549988 C 84.341003 253.195984 80.140999 762.840027 411.210999 814.140015 C 501.433014 828.119995 595.13501 798.473999 658.106995 736.026978 C 671.150024 723.093018 673.432007 716.677979 668.612976 706.5 C 665.232971 699.362976 670.630005 703.838013 583 635.512024 C 568.974976 624.575989 544.224976 605.226013 528 592.512024 C 511.774994 579.796997 485.106995 558.906006 468.737 546.088013 C 435.618988 520.155029 435 519.557007 435 513.5 C 435 505.792969 435.141998 505.674011 542.911987 423 C 672.091003 323.901978 670.270996 325.5 670.432007 311 C 670.541016 301.184998 668.495972 298.467041 649 282.515015 C 579.062012 225.294006 497.541992 200.094971 416.186005 210.549988 M 429.487 305.799011 C 389.166992 319.740967 392.605988 375.339966 434.264008 383.041016 C 471.40799 389.906982 496.529999 342.291992 469.796997 315.692993 C 459.276001 305.224976 442.824005 301.187012 429.487 305.799011"/>
</svg>
